REM DIRINDEX 1\2,1\3,1\4
REM DIRNAME cjc031,folder01,folder02,folder03
TITLE ""
FILE "CD1-13.mp3" MP3
  TRACK 01 AUDIO
    TITLE "2:cjc031_0696"
    INDEX 01 00:00:00
  TRACK 02 AUDIO
    TITLE "3:cjc031_0697"
    INDEX 01 00:01:11
  TRACK 03 AUDIO
    TITLE "2:cjc031_0698"
    INDEX 01 00:02:34
  TRACK 04 AUDIO
    TITLE "3:cjc031_0699"
    INDEX 01 00:04:01
  TRACK 05 AUDIO
    TITLE "2:cjc031_0700"
    INDEX 01 00:05:30
  TRACK 06 AUDIO
    TITLE "3:cjc031_0701"
    INDEX 01 00:06:63
  TRACK 07 AUDIO
    TITLE "2:cjc031_0702"
    INDEX 01 00:08:19
  TRACK 08 AUDIO
    TITLE "3:cjc031_0703"
    INDEX 01 00:09:47
  TRACK 09 AUDIO
    TITLE "2:cjc031_0704"
    INDEX 01 00:11:03
  TRACK 10 AUDIO
    TITLE "3:cjc031_0705"
    INDEX 01 00:12:03
  TRACK 11 AUDIO
    TITLE "2:cjc031_0706"
    INDEX 01 00:13:26
  TRACK 12 AUDIO
    TITLE "3:cjc031_0707"
    INDEX 01 00:14:72
  TRACK 13 AUDIO
    TITLE "2:cjc031_0708"
    INDEX 01 00:16:30
  TRACK 14 AUDIO
    TITLE "3:cjc031_0709"
    INDEX 01 00:17:65
  TRACK 15 AUDIO
    TITLE "2:cjc031_0710"
    INDEX 01 00:19:58
  TRACK 16 AUDIO
    TITLE "3:cjc031_0711"
    INDEX 01 00:20:57
  TRACK 17 AUDIO
    TITLE "2:cjc031_0712"
    INDEX 01 00:22:30
  TRACK 18 AUDIO
    TITLE "3:cjc031_0713"
    INDEX 01 00:23:46
  TRACK 19 AUDIO
    TITLE "2:cjc031_0714"
    INDEX 01 00:25:09
  TRACK 20 AUDIO
    TITLE "3:cjc031_0715"
    INDEX 01 00:26:40
  TRACK 21 AUDIO
    TITLE "2:cjc031_0716"
    INDEX 01 00:27:59
  TRACK 22 AUDIO
    TITLE "3:cjc031_0717"
    INDEX 01 00:29:09
  TRACK 23 AUDIO
    TITLE "2:cjc031_0718"
    INDEX 01 00:30:50
  TRACK 24 AUDIO
    TITLE "3:cjc031_0719"
    INDEX 01 00:31:59
  TRACK 25 AUDIO
    TITLE "2:cjc031_0720"
    INDEX 01 00:33:26
  TRACK 26 AUDIO
    TITLE "3:cjc031_0721"
    INDEX 01 00:34:57
  TRACK 27 AUDIO
    TITLE "2:cjc031_0722"
    INDEX 01 00:36:19
  TRACK 28 AUDIO
    TITLE "3:cjc031_0723"
    INDEX 01 00:37:42
  TRACK 29 AUDIO
    TITLE "2:cjc031_0724"
    INDEX 01 00:39:19
  TRACK 30 AUDIO
    TITLE "3:cjc031_0725"
    INDEX 01 00:40:50
  TRACK 31 AUDIO
    TITLE "2:cjc031_0726"
    INDEX 01 00:42:12
  TRACK 32 AUDIO
    TITLE "3:cjc031_0727"
    INDEX 01 00:43:23
  TRACK 33 AUDIO
    TITLE "2:cjc031_0728"
    INDEX 01 00:44:52
  TRACK 34 AUDIO
    TITLE "3:cjc031_0729"
    INDEX 01 00:45:73
  TRACK 35 AUDIO
    TITLE "2:cjc031_0730"
    INDEX 01 00:47:15
  TRACK 36 AUDIO
    TITLE "3:cjc031_0731"
    INDEX 01 00:48:40
  TRACK 37 AUDIO
    TITLE "2:cjc031_0732"
    INDEX 01 00:50:11
  TRACK 38 AUDIO
    TITLE "3:cjc031_0733"
    INDEX 01 00:51:24
  TRACK 39 AUDIO
    TITLE "2:cjc031_0734"
    INDEX 01 00:52:61
  TRACK 40 AUDIO
    TITLE "3:cjc031_0735"
    INDEX 01 00:54:11
  TRACK 41 AUDIO
    TITLE "2:cjc031_0736"
    INDEX 01 00:55:44
  TRACK 42 AUDIO
    TITLE "3:cjc031_0737"
    INDEX 01 00:56:69
  TRACK 43 AUDIO
    TITLE "2:cjc031_0738"
    INDEX 01 00:58:62
  TRACK 44 AUDIO
    TITLE "3:cjc031_0739"
    INDEX 01 01:00:13
  TRACK 45 AUDIO
    TITLE "2:cjc031_0740"
    INDEX 01 01:01:46
  TRACK 46 AUDIO
    TITLE "3:cjc031_0741"
    INDEX 01 01:03:04
  TRACK 47 AUDIO
    TITLE "2:cjc031_0742"
    INDEX 01 01:04:54
  TRACK 48 AUDIO
    TITLE "3:cjc031_0743"
    INDEX 01 01:06:18
  TRACK 49 AUDIO
    TITLE "2:cjc031_0744"
    INDEX 01 01:07:49
  TRACK 50 AUDIO
    TITLE "3:cjc031_0745"
    INDEX 01 01:08:68
  TRACK 51 AUDIO
    TITLE "2:cjc031_0746"
    INDEX 01 01:10:49
  TRACK 52 AUDIO
    TITLE "3:cjc031_0747"
    INDEX 01 01:12:09
  TRACK 53 AUDIO
    TITLE "2:cjc031_0748"
    INDEX 01 01:13:55
  TRACK 54 AUDIO
    TITLE "3:cjc031_0749"
    INDEX 01 01:15:01
  TRACK 55 AUDIO
    TITLE "2:cjc031_0750"
    INDEX 01 01:16:11
  TRACK 56 AUDIO
    TITLE "3:cjc031_0751"
    INDEX 01 01:17:32
  TRACK 57 AUDIO
    TITLE "2:cjc031_0752"
    INDEX 01 01:18:74
  TRACK 58 AUDIO
    TITLE "3:cjc031_0753"
    INDEX 01 01:20:26
  TRACK 59 AUDIO
    TITLE "2:cjc031_0754"
    INDEX 01 01:22:01
  TRACK 60 AUDIO
    TITLE "3:cjc031_0755"
    INDEX 01 01:23:22
  TRACK 61 AUDIO
    TITLE "2:cjc031_0756"
    INDEX 01 01:25:04
  TRACK 62 AUDIO
    TITLE "3:cjc031_0757"
    INDEX 01 01:26:29
  TRACK 63 AUDIO
    TITLE "2:cjc031_0758"
    INDEX 01 01:27:67
  TRACK 64 AUDIO
    TITLE "3:cjc031_0759"
    INDEX 01 01:29:19
  TRACK 65 AUDIO
    TITLE "2:cjc031_0760"
    INDEX 01 01:30:34
  TRACK 66 AUDIO
    TITLE "3:cjc031_0761"
    INDEX 01 01:32:06
  TRACK 67 AUDIO
    TITLE "2:cjc031_0762"
    INDEX 01 01:33:62
  TRACK 68 AUDIO
    TITLE "3:cjc031_0763"
    INDEX 01 01:35:26
  TRACK 69 AUDIO
    TITLE "2:cjc031_0764"
    INDEX 01 01:36:68
  TRACK 70 AUDIO
    TITLE "3:cjc031_0765"
    INDEX 01 01:38:28
  TRACK 71 AUDIO
    TITLE "2:cjc031_0766"
    INDEX 01 01:39:63
  TRACK 72 AUDIO
    TITLE "3:cjc031_0767"
    INDEX 01 01:41:07
  TRACK 73 AUDIO
    TITLE "2:cjc031_0768"
    INDEX 01 01:42:73
  TRACK 74 AUDIO
    TITLE "3:cjc031_0769"
    INDEX 01 01:44:21
  TRACK 75 AUDIO
    TITLE "2:cjc031_0770"
    INDEX 01 01:45:55
  TRACK 76 AUDIO
    TITLE "3:cjc031_0771"
    INDEX 01 01:46:74
  TRACK 77 AUDIO
    TITLE "2:cjc031_0772"
    INDEX 01 01:48:07
  TRACK 78 AUDIO
    TITLE "3:cjc031_0773"
    INDEX 01 01:49:24
  TRACK 79 AUDIO
    TITLE "2:cjc031_0774"
    INDEX 01 01:50:53
  TRACK 80 AUDIO
    TITLE "3:cjc031_0775"
    INDEX 01 01:51:74
  TRACK 81 AUDIO
    TITLE "0:"
    INDEX 01 01:53:16
